<?xml version="1.0" standalone="no"?><!DOCTYPE svg PUBLIC "-//W3C//DTD SVG 1.1//EN" "http://www.w3.org/Graphics/SVG/1.1/DTD/svg11.dtd"><svg t="1596626256578" class="icon" viewBox="0 0 1024 1024" version="1.1" xmlns="http://www.w3.org/2000/svg" p-id="30172" xmlns:xlink="http://www.w3.org/1999/xlink" width="64" height="64"><defs><style type="text/css"></style></defs><path d="M512 0a512 512 0 1 0 512 512 512 512 0 0 0-512-512z m0 896a384 384 0 1 1 384-384 384 384 0 0 1-384 384z" fill="#383B48" p-id="30173"></path><path d="M669.44 417.92L512 576 354.56 417.92A57.6 57.6 0 0 0 272.64 499.2l198.4 198.4a56.96 56.96 0 0 0 81.92 0l198.4-198.4a57.6 57.6 0 1 0-81.92-81.28z" fill="#383B48" p-id="30174"></path></svg>