<?xml version="1.0" standalone="no"?><!DOCTYPE svg PUBLIC "-//W3C//DTD SVG 1.1//EN" "http://www.w3.org/Graphics/SVG/1.1/DTD/svg11.dtd"><svg t="1596623944445" class="icon" viewBox="0 0 1024 1024" version="1.1" xmlns="http://www.w3.org/2000/svg" p-id="15107" xmlns:xlink="http://www.w3.org/1999/xlink" width="64" height="64"><defs><style type="text/css"></style></defs><path d="M298.5 757.9H162.1c-37.5 0-68.1-30.6-68.1-68.1 0-37.5 26.2-63.7 63.7-63.7 9.8 0 17.7 7.9 17.7 17.7 0 9.8-7.9 17.7-17.7 17.7-18 0-28.4 10.3-28.4 28.4 0 18.1 14.7 32.8 32.8 32.8h136.5c9.8 0 17.7 7.9 17.7 17.7-0.1 9.6-8 17.5-17.8 17.5zM864 757.9H420.6c-9.8 0-17.7-7.9-17.7-17.7 0-9.8 7.9-17.7 17.7-17.7H864c18.1 0 32.8-14.7 32.8-32.8 0-12.5-0.9-13.8-13.6-19.2-9-3.8-13.2-14.2-9.4-23.2 3.8-9 14.2-13.1 23.2-9.4 21.7 9.2 35.1 21.1 35.1 51.7 0 37.7-30.5 68.3-68.1 68.3z" fill="#3D2C1F" p-id="15108"></path><path d="M878.2 849.1H148c-35.5 0-64.3-33.7-64.3-75.2 0-34.2 18.6-48.1 64.3-48.1h143.5c9.8 0 17.7 7.9 17.7 17.7s-7.9 17.7-17.7 17.7H148c-24 0-28.2 4.1-28.2 4.2-0.2 0.4-0.8 2.1-0.8 8.6 0 21.6 13.3 39.9 29 39.9h730.2c15.7 0 29-18.3 29-39.9 0-6.6-0.6-8.3-0.8-8.7 0 0-4.2-4.1-28.1-4.1H420.6c-9.8 0-17.7-7.9-17.7-17.7s7.9-17.7 17.7-17.7h457.5c45.7 0 64.3 13.9 64.3 48.1 0.1 41.5-28.8 75.2-64.2 75.2zM513.1 227.5c111.8 0 216.6 25.9 295.1 73 75.2 45.1 116.6 104 116.6 165.8 0 36.3-29.6 65.9-65.9 65.9H167.2c-36.3 0-65.9-29.6-65.9-65.9 0-61.8 41.4-120.6 116.6-165.8 78.5-47.1 183.4-73 295.2-73m0-35.4c-118.1 0-229.4 27.7-313.3 78.1C113.5 322 66 391.6 66 466.3c0 55.8 45.4 101.2 101.2 101.2h691.7c55.8 0 101.2-45.4 101.2-101.2 0-74.7-47.5-144.3-133.8-196.1-83.9-50.3-195.1-78.1-313.2-78.1z" fill="#3D2C1F" p-id="15109"></path><path d="M347.9 819.2c-1 0-1.9-0.1-2.9-0.2-6.4-1.1-11.8-5.6-13.9-11.7-13.9-41-117-112.7-178.7-148.2-8.5-4.9-11.4-15.7-6.5-24.1 4.9-8.5 15.7-11.4 24.1-6.5 15.5 8.9 137.6 80.5 181.6 143.2 26.9-25.8 85.7-72.5 188-108.4 9.2-3.2 19.3 1.6 22.5 10.8 3.2 9.2-1.6 19.3-10.8 22.5-136.2 47.7-189 115-189.5 115.7-3.3 4.4-8.5 6.9-13.9 6.9z" fill="#3D2C1F" p-id="15110"></path><path d="M527 298.8m-21.1 0a21.1 21.1 0 1 0 42.2 0 21.1 21.1 0 1 0-42.2 0Z" fill="#3C2B1F" p-id="15111"></path><path d="M312.1 373.7m-21.1 0a21.1 21.1 0 1 0 42.2 0 21.1 21.1 0 1 0-42.2 0Z" fill="#3C2B1F" p-id="15112"></path><path d="M730.1 373.7m-21.1 0a21.1 21.1 0 1 0 42.2 0 21.1 21.1 0 1 0-42.2 0Z" fill="#3C2B1F" p-id="15113"></path><path d="M176.1 568.6l701.3 4.7c25.2 19.1 28.1 20.5 11.2 46.9-11.4 17.8-32.7 28-53.8 28-10.1 0-20.2-2.3-29.2-7.3-11.4-6.3-20.6-15.9-29.7-25.2-3.3-3.4-7.2-6.9-11.8-7h-0.1c-3.1 0-6 1.6-8.6 3.4-9.9 6.6-17.9 15.8-27.6 22.6-7 4.9-15.5 8.5-23.9 8.5-3.3 0-6.7-0.6-9.8-1.9-17-7-22.2-31.1-39.5-37.4-5.8 27.7-29.8 50.4-57.7 54.5-3.1 0.5-6.3 0.7-9.5 0.7-25 0-49.9-14-62.4-36-14.7 17.4-34.2 35.3-56 35.3-2.7 0-5.4-0.3-8.2-0.9-24.4-5.1-37.4-31.3-47-54.4-25.8 21.4-52.6 43.2-84.7 53-8.1 2.5-16.7 4.1-25.2 4.1-5.8 0-11.5-0.8-17-2.5-19.7-6.3-33.2-23.9-48.2-38.2-2.6-2.5-5.5-5-9-5.6-0.6-0.1-1.1-0.1-1.7-0.1-2.7 0-5.5 1-8 2.1-14.1 5.9-30 11.2-47.5 11.2-6.7 0-13.6-0.8-20.7-2.6-25.6-6.5-29.7-14.6-22.8-36.4 6.9-21.8 25-13.8 47.1-19.5m0-35.3c-3 0-6 0.4-8.9 1.1-3.7 0.9-7.8 1.3-12.6 1.6-14.2 1-47.3 3.5-59.3 41.6-4.5 14.3-8.3 33.1 1.9 51.4 10.5 18.8 30.1 25.9 46 29.9 9.6 2.4 19.5 3.7 29.4 3.7 19 0 35.9-4.4 49.7-9.4l0.8 0.8c13 13.3 29.3 30 53 37.6 8.7 2.8 18.1 4.2 27.8 4.2 11.2 0 23.2-1.9 35.5-5.7 23.9-7.3 44.6-19.5 63.2-32.9 11.5 15.7 27.8 30.2 50.9 35.1 5.1 1.1 10.3 1.6 15.5 1.6 21.9 0 40.5-9.5 54.9-20.4 18.2 13.3 40.6 21 63.6 21 4.9 0 9.9-0.4 14.7-1.1 23-3.4 44-14.9 59.9-31.3 5.1 4.6 11.1 8.8 18.6 11.9 7.3 3 15.2 4.6 23.3 4.6 18.9 0 34.4-8.1 44.1-14.9 5.5-3.8 10.2-7.9 14.4-11.6 7.4 7 15.9 14.1 26.2 19.7 13.9 7.6 29.9 11.7 46.3 11.7 34.1 0 66.1-17 83.6-44.3 28.9-45.2 16.5-66.8-18.3-93.1l-1.4-1c-6.1-4.6-13.5-7.1-21.1-7.1l-701.3-4.7h-0.4z" fill="#3D2C1F" p-id="15114"></path></svg>