<?xml version="1.0" standalone="no"?><!DOCTYPE svg PUBLIC "-//W3C//DTD SVG 1.1//EN" "http://www.w3.org/Graphics/SVG/1.1/DTD/svg11.dtd"><svg t="1596624105456" class="icon" viewBox="0 0 1024 1024" version="1.1" xmlns="http://www.w3.org/2000/svg" p-id="23919" xmlns:xlink="http://www.w3.org/1999/xlink" width="64" height="64"><defs><style type="text/css"></style></defs><path d="M624 238H401C214.88 238 64 388.88 64 575s150.88 337 337 337h223c186.12 0 337-150.88 337-337S810.12 238 624 238z m-223 72h223c146.355 0 265 118.645 265 265 0 146.355-118.645 265-265 265H401c-146.355 0-265-118.645-265-265 0-146.355 118.645-265 265-265z" fill="#6862F0" p-id="23920"></path><path d="M690 461c-63.462 0-115 51.212-115 114.5S626.538 690 690 690s115-51.212 115-114.5S753.462 461 690 461z m0 72c23.8 0 43 19.08 43 42.5S713.8 618 690 618s-43-19.08-43-42.5 19.2-42.5 43-42.5zM258.66 539.5l156.455 0.5c19.882 0.064 35.948 16.233 35.885 36.115-0.063 19.683-15.911 35.627-35.52 35.882l-0.595 0.003-156.455-0.5c-19.882-0.064-35.948-16.233-35.885-36.115 0.063-19.683 15.911-35.627 35.52-35.882l0.595-0.003z" fill="#FFBA00" p-id="23921"></path><path d="M336.73 461c19.682 0.126 35.575 16.025 35.768 35.634l0.001 0.595-1 157c-0.126 19.882-16.346 35.897-36.228 35.771-19.683-0.126-35.576-16.025-35.77-35.634v-0.595l1-157c0.126-19.882 16.346-35.897 36.228-35.771z" fill="#FFBA00" p-id="23922"></path><path d="M512.395 113.75c19.683 0.08 35.613 15.94 35.852 35.55l0.003 0.595-0.5 124.5c-0.08 19.882-16.262 35.935-36.145 35.855-19.683-0.08-35.613-15.94-35.852-35.55l-0.003-0.595 0.5-124.5c0.08-19.882 16.262-35.935 36.145-35.855z" fill="#6862F0" p-id="23923"></path></svg>