<?xml version="1.0" standalone="no"?><!DOCTYPE svg PUBLIC "-//W3C//DTD SVG 1.1//EN" "http://www.w3.org/Graphics/SVG/1.1/DTD/svg11.dtd"><svg t="1596624720700" class="icon" viewBox="0 0 1024 1024" version="1.1" xmlns="http://www.w3.org/2000/svg" p-id="25963" xmlns:xlink="http://www.w3.org/1999/xlink" width="64" height="64"><defs><style type="text/css"></style></defs><path d="M423.532606 32.698182L78.739394 327.718788A136.455758 136.455758 0 0 0 31.030303 431.406545v456.207516C31.030303 962.84703 91.911758 1024 167.222303 1024h172.388849l2.56-0.023273c74.030545-1.365333 133.624242-61.804606 133.624242-136.168727V729.677576l0.015515-1.939394c0.574061-19.874909 16.694303-35.630545 36.189091-35.630546 19.898182 0 36.204606 16.368485 36.204606 36.786425v158.921697c0 75.217455 60.974545 136.192 136.184242 136.192h172.388849c75.310545 0 136.192-61.15297 136.192-136.378182V431.398788a136.455758 136.455758 0 0 0-47.716849-103.68L600.467394 32.698182a136.044606 136.044606 0 0 0-176.934788 0z m116.417939 70.725818l344.777697 295.020606A43.364848 43.364848 0 0 1 899.878788 431.414303v456.207515c0 23.916606-19.293091 43.29503-43.101091 43.29503H684.388848a43.101091 43.101091 0 0 1-43.093333-43.10109V728.886303c0-71.734303-57.88703-129.877333-129.295515-129.877333-70.128485 0-127.224242 56.087273-129.241212 126.045091l-0.054303 3.832242v158.921697A43.101091 43.101091 0 0 1 339.611152 930.909091H167.222303c-23.808 0-43.101091-19.378424-43.101091-43.287273V431.398788a43.364848 43.364848 0 0 1 15.150546-32.946424l344.777697-295.020606a42.953697 42.953697 0 0 1 55.90109 0z" fill="#1B1B1B" p-id="25964"></path><path d="M356.848485 465.454545h310.30303a46.545455 46.545455 0 1 1 0 93.09091H356.848485a46.545455 46.545455 0 1 1 0-93.09091z" fill="#F6B340" p-id="25965"></path></svg>