<?xml version="1.0" standalone="no"?><!DOCTYPE svg PUBLIC "-//W3C//DTD SVG 1.1//EN" "http://www.w3.org/Graphics/SVG/1.1/DTD/svg11.dtd"><svg t="1596623963906" class="icon" viewBox="0 0 1024 1024" version="1.1" xmlns="http://www.w3.org/2000/svg" p-id="15523" xmlns:xlink="http://www.w3.org/1999/xlink" width="64" height="64"><defs><style type="text/css"></style></defs><path d="M351.428 444.077h-46.066c-12.72 0-23.033 10.313-23.033 23.033s10.313 23.033 23.033 23.033h46.066c12.72 0 23.033-10.313 23.033-23.033 0.001-12.72-10.313-23.033-23.033-23.033zM351.428 513.177h-46.066c-12.72 0-23.033 10.313-23.033 23.033 0 12.731 10.313 23.033 23.033 23.033h46.066c12.72 0 23.033-10.302 23.033-23.033 0.001-12.72-10.313-23.033-23.033-23.033zM489.628 444.077h-46.066c-12.72 0-23.033 10.313-23.033 23.033s10.313 23.033 23.033 23.033h46.066c12.72 0 23.033-10.313 23.033-23.033s-10.313-23.033-23.033-23.033zM489.628 513.177h-46.066c-12.72 0-23.033 10.313-23.033 23.033 0 12.731 10.313 23.033 23.033 23.033h46.066c12.72 0 23.033-10.302 23.033-23.033 0-12.72-10.313-23.033-23.033-23.033zM627.827 605.31H581.76c-12.731 0-23.033 10.302-23.033 23.033s10.302 23.033 23.033 23.033h46.067c12.731 0 23.033-10.302 23.033-23.033s-10.301-23.033-23.033-23.033zM627.827 444.077H581.76c-12.731 0-23.033 10.313-23.033 23.033s10.302 23.033 23.033 23.033h46.067c12.731 0 23.033-10.313 23.033-23.033 0.001-12.72-10.301-23.033-23.033-23.033zM627.827 513.177H581.76c-12.731 0-23.033 10.313-23.033 23.033 0 12.731 10.302 23.033 23.033 23.033h46.067c12.731 0 23.033-10.302 23.033-23.033 0.001-12.72-10.301-23.033-23.033-23.033z" fill="#333333" p-id="15524"></path><path d="M904.226 398.011h-92.133c-12.731 0-23.033 10.313-23.033 23.033v46.066h-46.067v-70.265c26.257-5.351 46.067-28.612 46.067-56.418 0-31.749-25.822-57.583-57.583-57.583h-21.111l-44.569-80.279a22.996 22.996 0 0 0-20.132-11.854H489.628v-23.033c0-12.72-10.313-23.033-23.033-23.033s-23.033 10.313-23.033 23.033v23.033h-46.066v-69.1c0-12.72-10.313-23.033-23.033-23.033s-23.033 10.313-23.033 23.033v69.1h-63.803a23.04 23.04 0 0 0-20.143 11.854l-44.569 80.279h-21.201c-31.749 0-57.583 25.834-57.583 57.583 0 27.806 19.815 51.067 46.066 56.418v484.864h-69.1c-12.72 0-23.033 10.302-23.033 23.033s10.313 23.033 23.033 23.033h690.998c12.731 0 23.033-10.302 23.033-23.033s-10.302-23.033-23.033-23.033h-69.1V605.31h46.067v46.067c0 12.731 10.302 23.033 23.033 23.033h92.133c12.731 0 23.033-10.302 23.033-23.033V421.044c-0.001-12.72-10.303-23.033-23.035-23.033zM301.178 236.778h330.923l25.575 46.067H275.603l25.575-46.067z m-99.466 92.133h529.765c6.343 0 11.517 5.162 11.517 11.517 0 6.354-5.173 11.517-11.517 11.517H201.712c-6.354 0-11.517-5.162-11.517-11.517 0.001-6.355 5.163-11.517 11.517-11.517z m357.016 552.798h-69.1v-138.2h69.1v138.2z m-115.167 0h-69.1v-138.2h69.1v138.2z m161.233 0V720.476c0-12.731-10.302-23.033-23.033-23.033H351.428c-12.72 0-23.033 10.302-23.033 23.033v161.233h-92.133V651.376h253.366c12.72 0 23.033-10.302 23.033-23.033s-10.313-23.033-23.033-23.033H236.262V398.011h460.665v483.698h-92.133z m138.2-322.466v-46.067h46.067v46.067h-46.067z m138.199 69.1h-46.066V444.077h46.066v184.266z" fill="#333333" p-id="15525"></path></svg>