<?xml version="1.0" standalone="no"?><!DOCTYPE svg PUBLIC "-//W3C//DTD SVG 1.1//EN" "http://www.w3.org/Graphics/SVG/1.1/DTD/svg11.dtd"><svg t="1596100666464" class="icon" viewBox="0 0 1024 1024" version="1.1" xmlns="http://www.w3.org/2000/svg" p-id="9637" id="mx_n_1596100666467" xmlns:xlink="http://www.w3.org/1999/xlink" width="200" height="200"><defs><style type="text/css"></style></defs><path d="M510.777 513.223m-418.146 0a418.146 418.146 0 1 0 836.292 0 418.146 418.146 0 1 0-836.292 0Z" fill="#FFD7D7" p-id="9638" data-spm-anchor-id="a313x.7781069.0.i17" class=""></path><path d="M413.938 851.724s173.226-155.71 234.486-203.861c61.259-48.151 204.195-164.388 207.011-184.481 2.816-20.092-203.393-115.574-203.393-115.574L195.645 568.587c-55.888 27.035-119.131 65.277-119.131 65.277s283.47 201.119 337.424 217.86z" fill="#45F2FF" p-id="9639"></path><path d="M413.938 856.434c-0.467 0-0.937-0.069-1.395-0.212-54.05-16.77-327.154-210.287-338.753-218.517a4.708 4.708 0 0 1 0.289-7.872c0.634-0.383 64.072-38.665 119.517-65.486l456.397-220.778a4.712 4.712 0 0 1 4.03-0.034c0.517 0.239 52.229 24.214 102.931 50.34 29.839 15.375 53.518 28.488 70.378 38.974 28.353 17.633 33.605 25.221 32.769 31.188-0.573 4.09-2.096 14.956-83.184 84.637-42.084 36.164-92.465 76.863-125.581 102.893-60.438 47.505-232.517 202.104-234.248 203.661a4.72 4.72 0 0 1-3.15 1.206zM85.145 634.197c40.294 28.43 274.105 192.601 327.696 212.183 19.735-17.708 175.592-157.353 232.671-202.218 33.038-25.968 83.294-66.567 125.263-102.632 70.648-60.709 79.168-75.294 79.945-78.541-0.833-2.479-9.867-15.47-101.148-62.317-43.846-22.501-87.695-43.08-97.491-47.65L197.696 572.827c-44.964 21.751-95.286 51.131-112.551 61.37z" fill="#280D0D" p-id="9640"></path><path d="M394.552 813.104L653.776 609.35c61.259-48.151 214.969-151.09 217.785-171.182S657.395 309.295 657.395 309.295L200.997 530.074 94.539 581.572s270.733 237.225 300.013 231.532z" fill="#45F2FF" p-id="9641"></path><path d="M393.414 817.915h-0.008c-5.756-0.003-23.273-0.014-165.375-116.896-69.651-57.29-135.934-115.324-136.595-115.904a4.709 4.709 0 0 1 1.053-7.782l562.855-272.276a4.715 4.715 0 0 1 4.162 0.029c0.543 0.272 54.945 27.577 108.302 56.988 31.394 17.304 56.308 31.953 74.053 43.539 32.985 21.538 35.034 28.436 34.364 33.21-0.802 5.724-7.17 15.418-47.985 47.33-26.66 20.844-60.846 45.584-93.907 69.511-30.045 21.744-58.425 42.282-77.646 57.39L397.462 816.807a4.704 4.704 0 0 1-2.012 0.92c-0.648 0.126-1.314 0.188-2.036 0.188zM103.005 582.708c17.148 14.931 72.915 63.251 131.024 111.047C356.256 794.29 385.744 807.762 392.833 808.464l258.032-202.817c19.369-15.224 47.821-35.815 77.945-57.616 32.913-23.819 66.947-48.45 93.444-69.157 38.52-30.104 43.93-38.856 44.58-41.091-0.544-1.481-4.547-7.895-33.666-26.576-17.893-11.479-42.468-25.815-73.044-42.611-46.275-25.419-92.564-48.898-102.771-54.049L103.005 582.708z" fill="#280D0D" p-id="9642"></path><path d="M394.552 790.712l259.224-203.754c61.259-48.151 214.969-151.09 217.785-171.182S657.395 286.903 657.395 286.903L200.997 507.682 94.539 559.18s270.733 237.226 300.013 231.532z" fill="#3BFFDE" p-id="9643"></path><path d="M393.414 795.523h-0.008c-5.756-0.003-23.273-0.014-165.375-116.896-69.651-57.29-135.934-115.325-136.595-115.904a4.708 4.708 0 0 1 1.053-7.781l562.855-272.277a4.715 4.715 0 0 1 4.162 0.029c0.543 0.272 54.945 27.577 108.302 56.988 31.394 17.305 56.309 31.954 74.053 43.54 32.985 21.538 35.034 28.436 34.364 33.21-0.802 5.724-7.17 15.418-47.985 47.33-26.66 20.843-60.846 45.584-93.906 69.51-30.046 21.744-58.425 42.283-77.646 57.391L397.462 794.415a4.704 4.704 0 0 1-2.012 0.92c-0.648 0.126-1.314 0.188-2.036 0.188zM103.005 560.316c17.148 14.932 72.915 63.252 131.024 111.048C356.256 771.898 385.744 785.37 392.833 786.073l258.032-202.817c19.369-15.224 47.822-35.815 77.945-57.616 32.913-23.819 66.947-48.449 93.444-69.157 38.52-30.103 43.929-38.855 44.579-41.091-0.544-1.481-4.547-7.895-33.666-26.576-17.893-11.479-42.468-25.815-73.044-42.611-46.275-25.419-92.564-48.899-102.771-54.049l-554.347 268.16z" fill="#280D0D" p-id="9644"></path><path d="M776.917 548.674c-42.084 36.164-92.465 76.863-125.581 102.893-60.438 47.505-232.517 202.104-234.248 203.661a4.72 4.72 0 0 1-4.545 0.994c-54.05-16.77-327.154-210.287-338.753-218.517a4.708 4.708 0 0 1 0.289-7.872c0.326-0.197 17.293-10.436 41.243-23.983-14.672-12.667-23.645-20.523-23.886-20.735a4.709 4.709 0 0 1 1.053-7.782l10.109-4.89c-6.98-6.059-11.001-9.58-11.162-9.72a4.708 4.708 0 0 1 1.053-7.781l218.559-105.727-5.758 0.725c-9.383-1.97-224.061 95.194-224.061 95.194s-14.784 24.947 0 32.825l-0.985 21.806 4.924 10.215s-21.083 10.332-20.674 15.768c0.409 5.437 1.755 29.659 6.887 39.68s322.762 223.462 343.07 233.051c12.022 2.863 93.194-85.277 93.194-85.277l19.907-21.826 16.554 8.382s297.46-293.122 300.069-298.859c2.401-5.282 16.489-14.247 11.013-27.036-7.511 10.178-26.957 30.715-78.271 74.811z" fill="#280D0D" p-id="9645"></path><path d="M495.9 790.813s136.864-202.387 188.351-264.839 171.374-206.447 171.374-206.447c-38.489-17.809-247.078-84.145-247.078-84.145S252.478 501.86 201.539 541.521l-97.03 75.547S467.225 802.909 495.9 790.813z" fill="#FF76C4" p-id="9646"></path><path d="M492.221 796.088h-0.007c-48.097-0.014-375.92-167.691-389.852-174.83a4.708 4.708 0 0 1-0.747-7.908l97.03-75.547c50.392-39.234 403.519-303.528 407.08-306.193a4.709 4.709 0 0 1 4.249-0.718c8.529 2.712 209.312 66.63 247.628 84.359a4.71 4.71 0 0 1 1.642 7.288c-1.199 1.44-120.469 144.7-171.36 206.43-50.756 61.566-186.716 262.459-188.083 264.481a4.7 4.7 0 0 1-2.071 1.701c-1.493 0.631-3.295 0.937-5.509 0.937zM113.236 616.242c119.179 60.879 342.97 170.417 378.98 170.427 0.333 0.028 0.591-0.01 0.82-0.026 12.771-18.843 138.906-204.624 187.581-263.665 45.596-55.306 146.051-176.023 167.373-201.64-46.251-19.229-216.656-73.744-238.562-80.733-28.449 21.294-356.618 266.966-404.995 304.632l-91.197 71.005z" fill="#280D0D" p-id="9647"></path><path d="M533.376 765.338s99.387-176.911 150.874-239.364c51.487-62.452 150.275-230.6 150.275-230.6-43.446 3.383-161.99-43.268-244.914-131.493-75.687 197.745-309.683 343.22-360.621 382.88s-65.687 52.726-65.687 52.726 341.398 177.947 370.073 165.851z" fill="#FF8888" p-id="9648"></path><path d="M589.612 163.882c80.115 85.236 193.473 131.665 240.24 131.665 1.64 0 3.202-0.057 4.674-0.172 0 0-98.788 168.147-150.275 230.6-51.487 62.452-150.874 239.364-150.874 239.364-0.943 0.398-2.221 0.59-3.818 0.59-46.946 0-366.255-166.439-366.255-166.439s14.748-13.065 65.687-52.726c50.938-39.662 284.934-185.137 360.621-382.882m0-9.419a9.42 9.42 0 0 0-8.797 6.053c-27.748 72.496-80.907 146.614-158.002 220.296-64.163 61.323-130.784 108.914-170.589 137.349-12.397 8.856-22.188 15.851-29.021 21.17-50.593 39.391-65.535 52.566-66.146 53.108a9.419 9.419 0 0 0 1.892 15.403c0.799 0.417 80.927 42.148 165.762 83.34 49.891 24.225 91.65 43.538 124.114 57.403 56.171 23.989 72.977 26.763 80.732 26.763 2.91 0 5.356-0.435 7.479-1.33a9.42 9.42 0 0 0 4.551-4.065c0.99-1.762 99.566-176.895 149.93-237.985 51.372-62.312 147.079-224.928 151.129-231.82a9.418 9.418 0 0 0-8.852-14.162c-1.223 0.095-2.55 0.144-3.943 0.144-18.434 0-55.271-8.633-103.378-32.862-34.585-17.419-85.213-48.185-129.999-95.834a9.408 9.408 0 0 0-6.862-2.971z" fill="#280D0D" p-id="9649"></path><path d="M563.763 163.882s85.892 65.699 132.615 95.015c66.964 42.017 140.916 63.982 186.448 58.429s-50.064-71.278-50.064-71.278-229.599-130.098-268.999-82.166z" fill="#F2F2F2" p-id="9650"></path><path d="M825.309 310.901c0.765-1.281 1.487-2.491 2.165-3.63l0.066-0.111c1.019-1.71 1.937-3.256 2.747-4.62l0.002-0.004a550.606 550.606 0 0 0 0.844-1.424l0.632-1.066 0.032-0.054 0.563-0.951 0.066-0.111 0.989-1.674 0.049-0.084 0.344-0.582 0.04-0.068 0.266-0.45 0.236-0.4 0.176-0.299c-0.617 0.048-1.254 0.083-1.902 0.111-0.247 0.01-0.5 0.016-0.751 0.024a66.71 66.71 0 0 1-1.202 0.027c-0.334 0.004-0.672 0.005-1.013 0.004a76.906 76.906 0 0 1-0.953-0.01c-0.417-0.007-0.835-0.014-1.263-0.028-0.176-0.006-0.358-0.015-0.536-0.022a102.484 102.484 0 0 1-7.875-0.628c-49.434-5.764-145.885-47.762-219.353-120.645a443.035 443.035 0 0 1-4.729-4.767l-0.531-0.542a386.53 386.53 0 0 1-4.807-5.017 399.107 399.107 0 0 1-2.764 7.005l-0.34 0.841a435.18 435.18 0 0 1-2.966 7.11C502.156 368.942 278.635 508.108 228.99 546.761c-50.938 39.66-65.687 52.726-65.687 52.726s341.398 177.947 370.073 165.851c0 0 99.387-176.911 150.874-239.364 41.957-50.893 115.324-171.972 141.046-215.051l0.013-0.022zM651.354 555.928l-262.879-108.43c9.622-7.675 17.244-14.119 21.995-18.753 46.176-45.05 106.274-114.945 145.551-172.618 16.14-23.699 28.655-47.58 38.259-69.259 29.275 21.815 73.182 53.885 102.099 72.03 37.657 23.628 77.513 40.897 113.291 50.512-34.519 53.702-99.125 154.457-158.316 246.518z" fill="#FFF6EE" p-id="9651"></path><path d="M513.496 654.357c-12.027-8.074-15.661-3.6-16.856-2.13-1.865 2.296-1.759 5.839 0.317 10.529 2.521 5.593 6.911 10.526 13.036 14.638 10.496 7.047 14.144 2.555 15.897 0.397 0.732-0.901 2.959-3.642-0.34-10.47-2.485-4.935-6.436-9.193-12.054-12.964zM545.731 614.677c-12.027-8.074-15.661-3.601-16.855-2.131-1.865 2.296-1.759 5.839 0.317 10.529 2.521 5.592 6.91 10.524 13.037 14.637 10.496 7.046 14.144 2.556 15.897 0.398 0.732-0.901 2.959-3.642-0.34-10.47-2.486-4.934-6.438-9.191-12.056-12.963z" fill="#3BFFDE" p-id="9652"></path><path d="M588.197 611.271c-4.275-8.853-11.547-16.778-21.6-23.528-9.99-6.707-19.622-9.717-29.446-9.2-12.128 0.636-23.493 6.755-32.001 17.228-5.987 7.369-9.265 15.598-9.742 24.112-8.482 2.553-16.256 7.891-22.494 15.569-4.279 5.267-7.174 10.971-8.651 16.906l-0.004 0.002-0.121 0.049c-5.102 2.073-9.66 5.459-13.178 9.789-4.577 5.635-5.312 11.061-5.553 12.844l-0.032 0.238a15.195 15.195 0 0 0-0.131 1.627l-0.017 0.641c-0.023 0.839-0.051 1.891 0.042 3.116 0.152 2.063 0.45 3.86 0.93 5.58 0.039 0.231 0.086 0.528 0.121 0.751 0.003 0.016 0.269 1.712 0.384 2.429 0.289 1.808 0.589 3.677 0.806 5.472 0.206 1.727 0.365 3.49 0.481 5.338-0.08 0.472-0.153 1-0.207 1.574l-0.069 0.513c-0.06 0.442-0.1 0.883-0.121 1.323l-0.025 0.524c-0.035 0.719-0.093 1.916 0.015 3.336 0.409 5.579 3.087 10.314 7.537 13.302 6.082 4.083 14.309 4.603 22.121 1.427a31.17 31.17 0 0 0 5.168-2.536c0.977 0.726 1.972 1.456 2.987 2.185 2.811 2.141 5.381 3.995 7.642 5.513 5.267 3.536 11.545 4.723 18.166 3.436 6.973-1.296 13.456-5.267 18.275-11.198 2.263-2.786 4.033-5.967 5.26-9.453l0.059-0.167c0.155-0.441 0.292-0.886 0.409-1.333l0.047-0.181c0.173-0.654 0.316-1.306 0.431-1.953 4.76-2.759 9.691-6.761 14.375-12.526 5.908-7.272 9.203-15.331 9.793-23.493 6.997-2.355 15.029-7.062 22.442-16.188 10.668-13.133 12.819-28.83 5.901-43.068z m-18.251 34.775c-5.283 6.503-11.441 10.174-18.304 10.913-4.369 0.528-8.758-0.146-13.26-2.057a36.468 36.468 0 0 1 2.507 4.376c5.662 11.654 1.397 20.816-3.179 26.449-5.283 6.503-11.441 10.174-18.304 10.913-4.592 0.554-9.203-0.218-13.946-2.358 0.858 0.591 1.738 1.191 2.647 1.801 0.66 0.443 1.342 0.901 2.123 1.25l0.293 0.131 0.262 0.176c0.655 0.439 1.424 0.77 2.22 1.098l0.188 0.077 0.176 0.096c0.634 0.343 1.503 0.815 2.068 1.019l0.439 0.159 0.377 0.253c0.322 0.216 0.578 0.353 0.803 0.475 0.283 0.151 0.496 0.276 0.646 0.377 0.823 0.553 2.637 2.23 1.681 5.848l-0.047 0.18-0.063 0.178c-0.535 1.52-1.256 2.846-2.145 3.939-1.884 2.319-4.108 3.72-6.614 4.166-2.382 0.48-4.638 0.02-6.706-1.369-2.081-1.397-4.49-3.138-7.161-5.175-2.762-1.979-5.444-4.025-8.038-6.004-1.312-0.996-2.724-2.155-4.219-3.383l-0.537-0.443-3.075-2.702c0.068 1.281 0.005 2.306-0.196 3.278l-0.024 0.117-0.031 0.117c-0.399 1.517-1.095 2.873-2.128 4.145-1.449 1.784-3.261 3.094-5.255 3.807-2.649 1.144-5.213 1.025-7.254-0.345-0.815-0.547-1.816-1.614-1.96-3.588-0.041-0.541-0.015-1.061 0.009-1.564l0.025-0.524 0.127-0.941c0.025-0.504 0.122-0.912 0.18-1.163a0.12 0.12 0 0 1 0.002-0.011c0.002-0.002 0.002 0.002 0.001 0.009l0.029-0.222 0.15-0.568 0.004-0.099c-0.133-2.846-0.35-5.512-0.665-8.148-0.249-2.055-0.569-4.055-0.878-5.989-0.113-0.706-0.375-2.375-0.375-2.375-0.101-0.643-0.205-1.306-0.336-1.893-0.311-0.975-0.494-2.019-0.59-3.349-0.038-0.497-0.023-1.035-0.006-1.657l0.017-0.641 0.031-0.232c0.117-0.867 0.336-2.48 1.654-4.102 1.403-1.727 3.129-3.015 5.127-3.827l0.121-0.049 0.122-0.044c2.351-0.827 4.773-0.525 6.821 0.85 0.362 0.243 0.678 0.494 0.977 0.738 0.116 0.094 0.224 0.189 0.344 0.27l0.269 0.18 1.498 1.461 1.299 1.427 0.36 0.475c0.185 0.247 0.376 0.502 0.487 0.611l0.132 0.131 0.118 0.144a81.988 81.988 0 0 0 6.384 6.981c-2.429-3.119-4.348-6.459-5.745-10.004-3.803-9.659-2.579-18.437 3.639-26.091 4.976-6.125 11.187-9.551 17.959-9.906 4.531-0.239 9.221 0.834 14.21 3.263a39.575 39.575 0 0 1-3.573-6.946c-3.804-9.659-2.579-18.437 3.639-26.091 4.976-6.125 11.187-9.551 17.959-9.906 6.348-0.334 13.01 1.905 20.367 6.844 8.168 5.484 13.987 11.74 17.298 18.596 5.666 11.653 1.4 20.815-3.175 26.448z" fill="#3BFFDE" p-id="9653"></path><path d="M594.485 230.031c6.35 0 6.35-9.848 0-9.848-6.351 0-6.351 9.848 0 9.848zM582.927 238.401c-6.839 17.116-17.253 32.484-30.389 45.384-4.536 4.455 2.431 11.414 6.963 6.963 14.41-14.151 25.436-30.993 32.922-49.729 2.358-5.902-7.169-8.44-9.496-2.618z" fill="#FFFFFF" p-id="9654"></path><path d="M554.581 602.81c-7.111-4.774-13.551-6.938-19.686-6.616-6.546 0.344-12.549 3.655-17.359 9.576-6.011 7.399-7.194 15.883-3.517 25.22a38.302 38.302 0 0 0 3.453 6.714c-4.822-2.348-9.356-3.385-13.735-3.154-6.546 0.343-12.549 3.655-17.359 9.575-6.011 7.399-7.194 15.883-3.518 25.219 1.351 3.426 3.205 6.655 5.553 9.67a79.26 79.26 0 0 1-6.171-6.747l-0.114-0.14L482 672a7.252 7.252 0 0 1-0.47-0.591l-0.348-0.46-1.256-1.379-1.448-1.412-0.26-0.174c-0.116-0.078-0.221-0.17-0.333-0.261-0.29-0.236-0.594-0.479-0.945-0.714-1.979-1.328-4.32-1.621-6.593-0.821l-0.118 0.042-0.117 0.047c-1.932 0.785-3.6 2.03-4.956 3.699-1.274 1.568-1.485 3.127-1.599 3.965l-0.03 0.225-0.016 0.62c-0.016 0.602-0.03 1.122 0.006 1.602 0.093 1.285 0.271 2.294 0.571 3.237 0.126 0.567 0.227 1.208 0.324 1.83 0 0 0.253 1.613 0.362 2.295 0.299 1.869 0.609 3.803 0.849 5.789 0.304 2.548 0.514 5.125 0.642 7.876l-0.004 0.096-0.145 0.549-0.028 0.215v0.003-0.003-0.01l-0.003 0.011c-0.057 0.242-0.15 0.636-0.174 1.124l-0.123 0.909-0.024 0.506c-0.023 0.486-0.049 0.989-0.009 1.512 0.14 1.909 1.107 2.94 1.895 3.468 1.972 1.324 4.451 1.439 7.011 0.333 1.927-0.688 3.678-1.955 5.079-3.679 0.999-1.229 1.671-2.539 2.057-4.006l0.03-0.113 0.023-0.113c0.194-0.939 0.255-1.93 0.189-3.168l2.972 2.611 0.519 0.428c1.445 1.187 2.81 2.308 4.078 3.27 2.507 1.913 5.099 3.891 7.769 5.804 2.581 1.969 4.91 3.652 6.922 5.003 2 1.342 4.179 1.787 6.482 1.323 2.422-0.431 4.572-1.785 6.393-4.026 0.858-1.057 1.556-2.338 2.073-3.807l0.061-0.172 0.046-0.174c0.924-3.496-0.829-5.118-1.625-5.652a7.523 7.523 0 0 0-0.624-0.364 8.422 8.422 0 0 1-0.776-0.459l-0.365-0.245-0.425-0.154c-0.545-0.197-1.385-0.653-1.999-0.985l-0.17-0.093-0.182-0.075c-0.77-0.317-1.513-0.637-2.146-1.061l-0.253-0.17-0.283-0.127c-0.755-0.337-1.415-0.78-2.052-1.208-0.878-0.59-1.73-1.169-2.559-1.74 4.585 2.068 9.042 2.815 13.48 2.279 6.634-0.714 12.586-4.263 17.692-10.549 4.423-5.445 8.546-14.301 3.073-25.565a35.272 35.272 0 0 0-2.424-4.229c4.352 1.847 8.594 2.499 12.817 1.989 6.634-0.714 12.586-4.263 17.692-10.549 4.423-5.444 8.546-14.301 3.073-25.565-3.197-6.629-8.822-12.677-16.717-17.977z m-28.936 74.224c-1.694 2.086-5.221 6.427-15.366-0.384-5.921-3.975-10.164-8.743-12.601-14.149-2.006-4.534-2.109-7.958-0.306-10.178 1.155-1.421 4.668-5.745 16.293 2.059 5.43 3.646 9.249 7.761 11.652 12.531 3.188 6.601 1.035 9.25 0.328 10.121z m31.158-38.354c-1.695 2.086-5.221 6.426-15.366-0.385-5.922-3.976-10.165-8.743-12.601-14.148-2.006-4.534-2.109-7.958-0.306-10.177 1.154-1.421 4.667-5.745 16.292 2.06 5.431 3.646 9.251 7.761 11.653 12.53 3.188 6.599 1.036 9.248 0.328 10.12z" fill="#FF76C4" p-id="9655"></path><path d="M536.09 596.163c5.777 0 11.841 2.182 18.491 6.647 7.895 5.3 13.52 11.348 16.72 17.975 5.473 11.264 1.35 20.121-3.073 25.565-5.106 6.286-11.058 9.835-17.692 10.549-0.925 0.112-1.85 0.168-2.777 0.168-3.309 0-6.641-0.714-10.04-2.156a35.408 35.408 0 0 1 2.424 4.229c5.473 11.264 1.35 20.121-3.073 25.565-5.106 6.286-11.058 9.834-17.692 10.549-0.924 0.112-1.849 0.168-2.776 0.168-3.524 0-7.074-0.809-10.704-2.447 0.829 0.572 1.68 1.151 2.559 1.74 0.638 0.428 1.297 0.871 2.052 1.208l0.283 0.127 0.253 0.17c0.633 0.425 1.376 0.745 2.146 1.061l0.182 0.075 0.17 0.093c0.613 0.332 1.453 0.787 1.998 0.985l0.425 0.154 0.365 0.245c0.311 0.209 0.558 0.342 0.776 0.459 0.274 0.146 0.479 0.267 0.624 0.364 0.796 0.534 2.549 2.156 1.625 5.652l-0.046 0.174-0.061 0.172c-0.517 1.47-1.214 2.751-2.073 3.807-1.821 2.241-3.971 3.596-6.393 4.026a8.78 8.78 0 0 1-1.741 0.178c-1.665 0-3.253-0.502-4.741-1.501-2.012-1.351-4.34-3.033-6.922-5.003-2.67-1.913-5.262-3.891-7.769-5.804-1.268-0.962-2.633-2.083-4.078-3.27l-0.519-0.428-2.972-2.611c0.066 1.238 0.005 2.229-0.189 3.168l-0.023 0.113-0.03 0.113c-0.386 1.467-1.059 2.777-2.057 4.006-1.401 1.724-3.152 2.991-5.079 3.679-1.162 0.502-2.307 0.752-3.396 0.752a6.388 6.388 0 0 1-3.615-1.086c-0.788-0.529-1.755-1.56-1.895-3.468-0.04-0.523-0.014-1.026 0.009-1.512l0.024-0.506 0.123-0.909c0.025-0.487 0.118-0.882 0.174-1.124l0.003-0.011V698.276v-0.003l0.028-0.215 0.145-0.549 0.004-0.096a109.015 109.015 0 0 0-0.643-7.876c-0.24-1.986-0.55-3.919-0.849-5.789-0.109-0.683-0.362-2.295-0.362-2.295-0.098-0.621-0.199-1.263-0.324-1.83-0.3-0.943-0.478-1.951-0.571-3.237-0.037-0.48-0.022-1-0.006-1.602l0.016-0.62 0.03-0.225c0.114-0.838 0.325-2.397 1.599-3.965 1.356-1.669 3.024-2.914 4.956-3.699l0.117-0.047 0.118-0.042a7.61 7.61 0 0 1 2.526-0.442c1.427 0 2.819 0.426 4.066 1.263 0.35 0.235 0.655 0.477 0.945 0.714 0.112 0.091 0.217 0.183 0.333 0.261l0.26 0.174 1.448 1.412 1.256 1.379 0.348 0.46c0.179 0.238 0.364 0.485 0.47 0.591l0.128 0.127 0.114 0.14a78.958 78.958 0 0 0 6.171 6.747c-2.348-3.015-4.202-6.244-5.553-9.67-3.676-9.336-2.493-17.821 3.518-25.219 4.81-5.921 10.813-9.232 17.359-9.575 0.398-0.021 0.797-0.031 1.197-0.031 4.008 0 8.154 1.051 12.538 3.185a38.097 38.097 0 0 1-3.453-6.714c-3.677-9.336-2.493-17.821 3.517-25.22 4.81-5.921 10.813-9.232 17.359-9.576 0.397-0.019 0.795-0.029 1.195-0.029m14.702 45.81c3.335 0 5-2.049 6.011-3.294 0.708-0.871 2.86-3.521-0.328-10.12-2.402-4.769-6.222-8.884-11.653-12.53-5.16-3.464-8.721-4.539-11.187-4.539-3.091 0-4.463 1.688-5.105 2.479-1.803 2.219-1.7 5.644 0.306 10.177 2.437 5.405 6.679 10.173 12.601 14.148 4.09 2.746 7.103 3.679 9.355 3.679m-31.16 38.356c3.336 0 5.001-2.049 6.012-3.294 0.708-0.871 2.86-3.521-0.329-10.121-2.403-4.77-6.222-8.885-11.652-12.531-5.159-3.464-8.72-4.538-11.187-4.538-3.091 0-4.464 1.689-5.106 2.479-1.803 2.219-1.7 5.644 0.306 10.178 2.437 5.406 6.68 10.174 12.601 14.149 4.09 2.744 7.103 3.678 9.355 3.678m16.458-93.586c-0.562 0-1.13 0.015-1.69 0.044-9.28 0.487-17.64 4.997-24.176 13.043-6.15 7.57-8.652 16.199-7.43 25.339-9.1 0.606-17.297 5.099-23.728 13.016-4.523 5.567-7.073 11.708-7.62 18.203a17.085 17.085 0 0 0-4.223 0.914l-0.153 0.055a8.672 8.672 0 0 0-0.379 0.144l-0.117 0.047c-3.426 1.393-6.36 3.575-8.728 6.489-2.942 3.621-3.436 7.267-3.622 8.64l-0.032 0.24a9.33 9.33 0 0 0-0.08 1.002l-0.016 0.62c-0.02 0.752-0.043 1.602 0.03 2.565 0.128 1.776 0.391 3.332 0.818 4.82 0.051 0.281 0.109 0.648 0.162 0.982 0.001 0.009 0.257 1.64 0.368 2.33 0.286 1.791 0.581 3.63 0.799 5.434 0.231 1.937 0.403 3.911 0.523 5.993a15.085 15.085 0 0 0-0.258 1.764l-0.084 0.619a9.422 9.422 0 0 0-0.075 0.823l-0.024 0.506c-0.031 0.631-0.076 1.568 0.007 2.665 0.319 4.351 2.519 8.214 6.036 10.576a15.845 15.845 0 0 0 8.866 2.685c2.295 0 4.599-0.473 6.852-1.406 2.746-1.029 5.269-2.671 7.405-4.808a278.892 278.892 0 0 0 6.255 4.65c2.683 2.044 5.129 3.81 7.273 5.249 3.021 2.028 6.476 3.1 9.992 3.1a18.22 18.22 0 0 0 3.498-0.343c4.602-0.846 8.731-3.383 11.947-7.341 1.543-1.9 2.77-4.127 3.647-6.62l0.057-0.161c0.088-0.248 0.165-0.499 0.231-0.753l0.046-0.174c0.497-1.882 0.656-3.639 0.554-5.259 5.689-2.318 10.9-6.301 15.359-11.789 6.059-7.459 8.625-15.866 7.604-24.431 8.891-1.083 17.028-5.89 23.554-13.924 8.692-10.7 10.196-23.35 4.234-35.621-3.927-8.133-10.64-15.434-19.942-21.679-8.263-5.55-16.029-8.248-23.74-8.248z m10.555 43.702c-3.001-2.021-5.395-4.248-7.155-6.651l0.082 0.055c3.063 2.056 5.397 4.231 7.073 6.596z m-31.158 38.357c-3.003-2.022-5.399-4.251-7.159-6.656l0.086 0.057c3.062 2.056 5.397 4.232 7.073 6.599z" fill="#280D0D" p-id="9656" data-spm-anchor-id="a313x.7781069.0.i16" class=""></path><path d="M269.414 587.207l-15 11.631-25.888-14.601 15-11.631zM288.605 572.327l-15 11.631-25.888-14.602 15-11.63zM307.796 557.447l-15 11.63-25.888-14.601 15-11.63zM326.987 542.567l-15 11.63-25.888-14.601 15-11.63zM346.178 527.687l-15 11.63-25.888-14.601 15-11.631zM365.369 512.806l-15 11.631-25.888-14.601 15-11.631z" fill="#FF76C4" p-id="9657"></path><path d="M615.478 416.943s-59.434-10.842-22.675-60.624c29.046-39.337 59.907 5.446 59.907 5.446s54.278-31.463 85.724-19.481c31.447 11.982 40.936 14.429 40.936 14.429L671.43 524.437s-39.597-33.781-45.043-61.919c-6.23-32.193-10.909-45.575-10.909-45.575z" fill="#F98080" p-id="9658"></path><path d="M623.815 371.938s-64.481-11.763-24.601-65.772c31.512-42.678 64.994 5.909 64.994 5.909s58.887-34.134 93.004-21.135 52.741 18.181 52.741 18.181L691.377 493.643s-49.818-41.732-55.727-72.26c-6.759-34.926-11.835-49.445-11.835-49.445z" fill="#F46E6E" p-id="9659"></path><path d="M439.656 440.326m-5.252 0a5.252 5.252 0 1 0 10.504 0 5.252 5.252 0 1 0-10.504 0Z" fill="#F77777" p-id="9660"></path><path d="M450.987 428.103m-5.252 0a5.252 5.252 0 1 0 10.504 0 5.252 5.252 0 1 0-10.504 0Z" fill="#F77777" p-id="9661"></path><path d="M462.319 415.88m-5.252 0a5.252 5.252 0 1 0 10.504 0 5.252 5.252 0 1 0-10.504 0Z" fill="#F77777" p-id="9662"></path><path d="M473.65 403.657m-5.252 0a5.252 5.252 0 1 0 10.504 0 5.252 5.252 0 1 0-10.504 0Z" fill="#F77777" p-id="9663"></path><path d="M484.982 391.433m-5.252 0a5.252 5.252 0 1 0 10.504 0 5.252 5.252 0 1 0-10.504 0Z" fill="#F77777" p-id="9664"></path><path d="M496.314 379.21m-5.252 0a5.252 5.252 0 1 0 10.504 0 5.252 5.252 0 1 0-10.504 0Z" fill="#F77777" p-id="9665"></path><path d="M507.645 366.987m-5.252 0a5.252 5.252 0 1 0 10.504 0 5.252 5.252 0 1 0-10.504 0Z" fill="#F77777" p-id="9666"></path><path d="M263.004 764.076c4.802-7.588 10.683-14.243 17.587-19.979 1.49-1.237-0.645-3.348-2.121-2.121-7.096 5.895-13.124 12.793-18.056 20.586-1.039 1.64 1.558 3.144 2.59 1.514z m-9.075-6.184a160.044 160.044 0 0 0 21.254-20.225c1.268-1.449-0.845-3.58-2.121-2.121a160.04 160.04 0 0 1-21.254 20.225c-1.517 1.199 0.621 3.307 2.121 2.121z m-7.536-6.499l44.258-44.241c1.369-1.369-0.752-3.49-2.121-2.121l-44.258 44.241c-1.369 1.369 0.752 3.49 2.121 2.121z m-9.303-9.303l44.088-43.912c1.372-1.367-0.75-3.488-2.121-2.121l-44.088 43.912c-1.373 1.366 0.749 3.487 2.121 2.121z m-12.529-10.029l39-39c1.369-1.369-0.752-3.49-2.121-2.121l-39 39c-1.37 1.368 0.752 3.49 2.121 2.121z m5 5l23.5-23.5c1.369-1.369-0.752-3.49-2.121-2.121l-23.5 23.5c-1.37 1.368 0.752 3.49 2.121 2.121z m-16.814-12.814l58.367-58.633c1.366-1.372-0.755-3.494-2.121-2.121l-58.367 58.633c-1.366 1.371 0.755 3.493 2.121 2.121z m-13.186-5.686l28-28c1.369-1.369-0.752-3.49-2.121-2.121l-28 28c-1.37 1.368 0.752 3.49 2.121 2.121z m8.112 1.112l27.943-28.057c1.366-1.372-0.755-3.493-2.121-2.121l-27.943 28.057c-1.366 1.371 0.755 3.493 2.121 2.121z m-19.726-7.231a756.99 756.99 0 0 0 28.149-28.347c1.325-1.407-0.792-3.532-2.121-2.121a757.755 757.755 0 0 1-28.149 28.347c-1.401 1.338 0.723 3.456 2.121 2.121z m-5.886-3.881l23.5-23.5c1.369-1.369-0.752-3.49-2.121-2.121l-23.5 23.5c-1.37 1.368 0.752 3.49 2.121 2.121z m-6.445-9.944l13.359-13.143c1.381-1.358-0.742-3.479-2.121-2.121l-13.359 13.143c-1.381 1.358 0.742 3.478 2.121 2.121z m4.945 4.944l12.5-12.5c1.369-1.369-0.752-3.49-2.121-2.121l-12.5 12.5c-1.37 1.368 0.752 3.49 2.121 2.121z m-13.57-4.57l16.548-16.451c1.373-1.365-0.748-3.486-2.121-2.121L164.87 696.87c-1.373 1.365 0.748 3.486 2.121 2.121z m-10.424-6.923a94.985 94.985 0 0 0 10.488-10.512c1.248-1.463-0.864-3.596-2.121-2.121a94.9 94.9 0 0 1-10.488 10.512c-1.472 1.26 0.66 3.372 2.121 2.121z m7.435-0.058a72.277 72.277 0 0 1 8.562-8.446c1.487-1.241-0.647-3.352-2.121-2.121a72.277 72.277 0 0 0-8.562 8.446c-1.253 1.46 0.859 3.592 2.121 2.121z m-22.441-4.449l18.5-18.5c1.369-1.369-0.752-3.49-2.121-2.121l-18.5 18.5c-1.37 1.368 0.752 3.49 2.121 2.121z m11-3l7.5-7.5c1.369-1.369-0.752-3.49-2.121-2.121l-7.5 7.5c-1.37 1.368 0.752 3.49 2.121 2.121z m-16.52-8.016a62.265 62.265 0 0 1 9.028-8.974c1.505-1.217-0.632-3.326-2.121-2.121a62.265 62.265 0 0 0-9.028 8.974c-1.215 1.483 0.894 3.618 2.121 2.121z m10.02-0.484l4-4c1.369-1.369-0.752-3.49-2.121-2.121l-4 4c-1.37 1.368 0.752 3.49 2.121 2.121z m-13-7l7.5-7.5c1.369-1.369-0.752-3.49-2.121-2.121l-7.5 7.5c-1.37 1.368 0.752 3.49 2.121 2.121z m-11.617-5.623l5.627-5.366c1.402-1.337-0.722-3.456-2.121-2.121l-5.627 5.366c-1.403 1.337 0.721 3.455 2.121 2.121z m-7.383-4.877l2.5-2.5a1.514 1.514 0 0 0 0-2.121 1.514 1.514 0 0 0-2.121 0l-2.5 2.5a1.514 1.514 0 0 0 0 2.121 1.514 1.514 0 0 0 2.121 0z m-8-7.5l3.5-3.5c1.369-1.369-0.752-3.49-2.121-2.121l-3.5 3.5c-1.37 1.368 0.752 3.49 2.121 2.121zM112.5 653c1.935 0 1.935-3 0-3s-1.935 3 0 3z m7.5 0c1.935 0 1.935-3 0-3s-1.935 3 0 3z m42.5 24c1.935 0 1.935-3 0-3s-1.935 3 0 3z m45 27.5c1.935 0 1.935-3 0-3s-1.935 3 0 3z m-11.439 8.561l4-4c1.369-1.369-0.752-3.49-2.121-2.121l-4 4c-1.37 1.368 0.752 3.49 2.121 2.121z m21.976 15.975a55147.6 55147.6 0 0 1 7.969-7.532c1.408-1.331-0.717-3.449-2.121-2.121a55147.6 55147.6 0 0 1-7.969 7.532c-1.409 1.33 0.716 3.448 2.121 2.121zM229 717c1.935 0 1.935-3 0-3s-1.935 3 0 3z m41.468 50.468l36.659-36.841c1.366-1.372-0.755-3.494-2.121-2.121l-36.659 36.841c-1.366 1.372 0.755 3.494 2.121 2.121z m11.113 1.613l13.076-12.923c1.378-1.361-0.745-3.482-2.121-2.121L279.46 766.96c-1.378 1.361 0.744 3.482 2.121 2.121z m1.98-6.52l9.5-9.5c1.369-1.369-0.752-3.49-2.121-2.121l-9.5 9.5c-1.37 1.368 0.752 3.49 2.121 2.121z m5 8.5l14-14c1.369-1.369-0.752-3.49-2.121-2.121l-14 14c-1.37 1.368 0.752 3.49 2.121 2.121z m9.495 5.495a176.162 176.162 0 0 0 11.988-12.01c1.296-1.43-0.82-3.558-2.121-2.121a176.162 176.162 0 0 1-11.988 12.01c-1.434 1.304 0.694 3.419 2.121 2.121z" fill="#280D0D" p-id="9667"></path></svg>