<?xml version="1.0" standalone="no"?><!DOCTYPE svg PUBLIC "-//W3C//DTD SVG 1.1//EN" "http://www.w3.org/Graphics/SVG/1.1/DTD/svg11.dtd"><svg t="1596623083054" class="icon" viewBox="0 0 1024 1024" version="1.1" xmlns="http://www.w3.org/2000/svg" p-id="4438" xmlns:xlink="http://www.w3.org/1999/xlink" width="64" height="64"><defs><style type="text/css"></style></defs><path d="M871.424 1015.808H183.296c-68.608 0-123.904-55.296-123.904-123.904V203.776c0-68.608 55.296-123.904 123.904-123.904h524.288c23.552 0 43.008 19.456 43.008 41.984S731.136 163.84 707.584 163.84H183.296c-21.504 0-38.912 17.408-38.912 38.912V890.88c0 21.504 17.408 38.912 38.912 38.912h688.128c21.504 0 38.912-17.408 38.912-38.912V440.32c0-23.552 19.456-41.984 43.008-41.984s43.008 19.456 43.008 41.984v450.56c-1.024 68.608-57.344 124.928-124.928 124.928z" fill="#4C4C4C" p-id="4439"></path><path d="M442.368 675.84c-11.264 0-21.504-4.096-29.696-12.288-16.384-16.384-16.384-43.008 0-60.416L922.624 93.184c16.384-16.384 43.008-16.384 60.416 0 16.384 16.384 16.384 43.008 0 60.416L472.064 662.528c-8.192 8.192-18.432 13.312-29.696 13.312z" fill="#FFA028" p-id="4440"></path></svg>