<?xml version="1.0" standalone="no"?><!DOCTYPE svg PUBLIC "-//W3C//DTD SVG 1.1//EN" "http://www.w3.org/Graphics/SVG/1.1/DTD/svg11.dtd"><svg t="1596114189703" class="icon" viewBox="0 0 1024 1024" version="1.1" xmlns="http://www.w3.org/2000/svg" p-id="22380" xmlns:xlink="http://www.w3.org/1999/xlink" width="64" height="64"><defs><style type="text/css"></style></defs><path d="M939.616 148.384a287.904 287.904 0 0 0-407.264 0L65.472 609.728c-87.328 87.328-87.328 229.472 0 316.8s229.44 87.328 316.736 0l466.88-461.376a160 160 0 1 0-226.24-226.272L271.872 589.856a32 32 0 1 0 45.248 45.28L668.128 284.128a96.128 96.128 0 0 1 135.744 0 96.096 96.096 0 0 1 0 135.776l-466.88 461.344a159.936 159.936 0 0 1-226.24 0 159.936 159.936 0 0 1 0-226.24L573.056 198.144a223.936 223.936 0 0 1 316.736 0 223.904 223.904 0 0 1 0.064 316.768L543.424 861.376a31.84 31.84 0 0 0 0 45.248 31.904 31.904 0 0 0 45.248 0l350.944-350.976a287.904 287.904 0 0 0 0-407.264z"  p-id="22381"></path></svg>